<?xml version="1.0" standalone="no"?>
<!DOCTYPE svg PUBLIC "-//W3C//DTD SVG 20010904//EN"
 "http://www.w3.org/TR/2001/REC-SVG-20010904/DTD/svg10.dtd">
<svg version="1.0" xmlns="http://www.w3.org/2000/svg"
 width="512.000000pt" height="512.000000pt" viewBox="0 0 512.000000 512.000000"
 preserveAspectRatio="xMidYMid meet">
<metadata>
Created by potrace 1.14, written by Peter Selinger 2001-2017
</metadata>
<g transform="translate(0.000000,512.000000) scale(0.100000,-0.100000)"
fill="#000000" stroke="none">
<path d="M2980 4681 c-161 -52 -257 -243 -319 -631 -63 -390 -101 -1004 -101
-1628 0 -339 -5 -372 -56 -372 -63 0 -148 65 -195 150 -11 20 -15 136 -19 595
l-5 570 -157 3 -158 3 0 -558 0 -558 -25 -91 c-75 -274 -199 -454 -311 -454
-86 0 -173 224 -204 529 -6 60 -10 370 -10 746 l0 642 233 106 c127 58 262
120 300 137 l67 30 -66 133 c-37 72 -68 134 -70 136 -2 2 -104 -42 -227 -98
-123 -55 -227 -101 -230 -101 -4 0 -7 117 -7 260 l0 260 -160 0 -160 0 0 -337
0 -338 -310 -155 c-170 -85 -309 -159 -310 -163 0 -15 141 -257 151 -257 5 0
113 52 239 115 l231 115 -3 -502 -3 -503 -37 -83 c-54 -123 -95 -187 -168
-261 -94 -97 -238 -179 -442 -254 -16 -6 -14 -14 16 -89 19 -46 44 -109 57
-140 12 -32 28 -58 34 -58 21 0 189 72 265 113 106 58 207 127 272 186 31 28
58 51 61 51 3 0 8 -17 12 -37 14 -77 85 -245 129 -308 108 -151 265 -212 440
-171 159 38 282 141 378 316 31 58 61 111 65 118 6 11 21 6 67 -22 79 -47 178
-79 251 -80 l60 -1 -3 -460 c-2 -253 -1 -551 3 -662 l7 -201 177 113 c254 164
392 298 462 451 77 169 47 338 -85 481 l-56 61 102 56 c57 30 139 80 183 111
l80 56 5 -665 5 -665 145 95 c80 52 152 98 162 102 38 17 175 143 234 217 132
163 170 299 124 447 -23 75 -67 145 -132 211 -26 26 -43 47 -39 47 5 0 51 28
102 61 135 88 313 270 411 419 74 112 182 307 232 422 l25 56 -137 56 c-75 31
-141 55 -148 54 -6 -2 -49 -77 -96 -168 -163 -319 -299 -483 -506 -608 -29
-18 -54 -32 -57 -32 -3 0 -5 57 -5 126 l0 126 88 132 c167 247 305 498 379
689 151 391 188 1184 70 1509 -67 186 -183 291 -335 305 -247 23 -372 -220
-452 -874 l-18 -148 -1 182 c0 100 -6 224 -12 275 -43 356 -182 553 -398 564
-36 2 -77 0 -91 -5z m157 -501 c26 -121 26 -597 0 -780 -40 -283 -95 -461
-207 -665 -42 -76 -50 -85 -50 -60 0 90 22 570 35 755 30 428 92 810 148 915
10 18 13 15 33 -30 13 -27 31 -88 41 -135z m853 83 c33 -107 45 -227 44 -448
-1 -304 -35 -578 -95 -767 -17 -54 -64 -164 -105 -245 l-74 -148 5 255 c12
619 80 1207 162 1412 15 38 17 39 30 22 7 -10 22 -47 33 -81z m-540 -1145 c-6
-128 -15 -397 -18 -598 l-7 -364 -85 -74 c-104 -90 -231 -175 -362 -242 l-98
-51 0 133 0 133 109 166 c187 283 310 518 380 728 30 89 81 334 81 388 0 15 3
24 6 21 3 -4 0 -111 -6 -240z m-545 -1912 c14 -34 10 -72 -14 -113 -8 -14 -10
1 -11 65 0 45 2 82 6 82 3 0 11 -15 19 -34z m885 -32 c0 -12 -7 -37 -15 -55
-14 -34 -14 -33 -14 46 0 74 1 78 14 55 8 -14 14 -35 15 -46z"/>
<path d="M1970 3660 l0 -140 160 0 160 0 0 140 0 140 -160 0 -160 0 0 -140z"/>
</g>
</svg>
