<?xml version="1.0" standalone="no"?>
<!DOCTYPE svg PUBLIC "-//W3C//DTD SVG 20010904//EN"
 "http://www.w3.org/TR/2001/REC-SVG-20010904/DTD/svg10.dtd">
<svg version="1.0" xmlns="http://www.w3.org/2000/svg"
 width="700.000000pt" height="700.000000pt" viewBox="0 0 700.000000 700.000000"
 preserveAspectRatio="xMidYMid meet">
<metadata>
Created by potrace 1.11, written by Peter Selinger 2001-2013
</metadata>
<g transform="translate(0.000000,700.000000) scale(0.100000,-0.100000)"
fill="#000000" stroke="none">
<path d="M4190 6986 c-176 -48 -313 -207 -400 -466 -42 -125 -101 -357 -115
-452 -2 -18 -7 -45 -10 -61 -10 -57 -24 -144 -30 -187 -3 -25 -8 -61 -11 -80
-5 -38 -8 -61 -19 -160 -4 -36 -9 -72 -10 -80 -2 -8 -6 -53 -10 -100 -4 -47
-8 -92 -10 -100 -2 -8 -6 -53 -9 -100 -4 -47 -9 -110 -11 -140 -2 -30 -7 -93
-10 -140 -3 -47 -8 -112 -10 -145 -2 -33 -7 -118 -10 -190 -3 -71 -8 -166 -10
-210 -15 -310 -24 -714 -25 -1209 0 -372 -1 -390 -22 -438 -11 -27 -28 -53
-37 -57 -21 -11 -114 13 -166 44 -75 44 -132 110 -186 215 l-34 65 0 915 0
915 -262 3 -263 2 0 -916 c0 -890 -1 -918 -20 -997 -112 -446 -297 -751 -484
-798 -60 -15 -86 -7 -130 38 -63 64 -163 301 -191 453 -5 26 -11 57 -20 100
-3 14 -7 45 -10 70 -3 25 -8 56 -10 70 -3 14 -7 50 -10 80 -4 30 -9 69 -12 85
-3 17 -8 528 -10 1138 l-4 1107 23 9 c21 8 85 37 213 96 28 13 73 33 100 45
28 12 73 32 100 45 28 12 73 33 100 45 28 12 131 60 230 105 99 45 190 85 202
89 22 7 19 15 -87 226 -61 121 -114 222 -119 225 -5 3 -48 -13 -96 -35 -48
-22 -101 -46 -118 -54 -18 -8 -58 -26 -91 -41 -271 -124 -450 -205 -453 -205
-2 0 -3 195 -3 434 l0 434 -263 0 -263 1 0 -556 c1 -358 -3 -558 -9 -563 -5
-4 -236 -121 -513 -260 -345 -174 -499 -256 -493 -264 4 -6 20 -31 33 -56 14
-25 66 -118 117 -208 l92 -162 376 190 c207 104 381 190 387 190 8 0 11 -235
10 -807 l-1 -808 -38 -100 c-163 -433 -401 -656 -925 -864 -76 -30 -124 -54
-122 -62 2 -7 28 -71 58 -142 29 -71 54 -131 54 -133 0 -2 -27 -4 -60 -4 l-60
0 0 -874 0 -874 1693 -1 c930 0 1716 0 1745 -1 l52 0 0 -160 0 -159 34 22 c19
12 74 47 123 78 48 31 145 93 216 139 l127 82 461 0 c253 0 463 -3 466 -6 4
-3 6 -73 5 -156 -1 -82 2 -150 7 -150 7 0 282 173 424 267 l68 45 789 0 790 0
0 874 0 874 -457 0 -458 0 55 48 c204 176 404 427 575 722 48 83 256 495 274
543 9 23 6 26 -97 67 -59 24 -125 51 -147 60 -22 9 -65 27 -95 40 -30 13 -69
29 -87 36 -44 20 -49 18 -64 -18 -17 -43 -147 -306 -200 -405 -142 -264 -305
-487 -456 -626 -25 -23 -51 -47 -57 -52 -60 -56 -324 -230 -334 -220 -3 2 -4
98 -4 213 l0 209 71 100 c285 404 579 935 699 1263 76 206 137 476 167 730 3
25 7 61 10 80 17 136 19 158 32 350 10 143 10 626 1 740 -10 113 -24 214 -49
333 -81 398 -268 647 -531 704 -18 4 -76 7 -129 7 -91 0 -101 -2 -170 -36
-153 -76 -253 -216 -339 -477 -32 -98 -85 -312 -105 -426 -16 -94 -37 -225
-41 -261 -3 -23 -7 -52 -9 -64 -2 -12 -7 -51 -11 -88 -3 -37 -7 -69 -9 -72 -2
-3 -6 -44 -10 -91 -14 -172 -20 -145 -19 83 3 552 -73 940 -228 1166 -36 53
-128 147 -173 178 -113 77 -297 113 -415 80z m176 -583 c33 -74 71 -217 84
-317 6 -45 13 -92 15 -106 14 -93 21 -480 11 -655 -7 -112 -17 -250 -21 -275
-2 -14 -6 -54 -10 -90 -3 -36 -8 -76 -10 -90 -3 -14 -7 -43 -10 -65 -2 -22 -6
-55 -9 -72 -3 -18 -8 -48 -11 -65 -3 -18 -7 -44 -10 -58 -3 -14 -7 -39 -10
-57 -14 -84 -69 -274 -111 -380 -45 -115 -225 -488 -245 -508 -10 -9 -6 287 6
565 17 376 20 450 30 590 3 41 7 109 10 150 6 100 16 209 20 240 2 14 7 66 10
115 4 50 9 92 10 95 2 3 6 43 10 90 4 47 8 87 10 90 2 3 6 32 9 65 4 33 13 98
21 145 8 47 17 103 21 125 3 22 15 83 26 135 11 52 21 100 22 105 19 86 87
285 98 285 5 0 20 -26 34 -57z m1429 8 c54 -107 97 -320 112 -551 11 -185 6
-526 -12 -720 -25 -275 -45 -417 -90 -651 -16 -85 -81 -281 -128 -389 -29 -68
-162 -338 -197 -400 l-31 -55 6 185 c7 258 19 574 30 775 7 144 20 339 31 470
3 39 7 88 9 110 5 65 16 188 20 215 2 14 6 54 10 90 6 64 8 76 19 155 3 22 8
60 12 85 8 58 13 93 19 128 2 15 7 45 10 67 3 22 7 47 10 55 2 8 7 31 10 50
25 147 111 430 130 430 3 0 16 -22 30 -49z m-788 -1123 c-3 -7 -5 -2 -5 12 0
14 2 19 5 13 2 -7 2 -19 0 -25z m-31 -405 c-3 -27 -8 -97 -11 -158 -3 -60 -8
-146 -10 -190 -4 -82 -11 -237 -20 -500 -6 -170 -14 -656 -16 -970 l-1 -210
-96 -87 c-167 -151 -342 -275 -547 -390 -82 -46 -247 -128 -258 -128 -1 0 -2
99 -2 219 l1 219 28 39 c33 46 187 271 201 295 5 10 51 84 102 165 95 154 102
166 188 323 179 329 329 707 359 910 3 19 12 71 20 115 9 44 18 98 21 120 3
22 10 72 15 110 16 112 18 129 19 148 1 9 4 17 7 17 3 0 3 -21 0 -47z m-3713
-2658 c14 -38 32 -87 41 -107 9 -21 16 -40 16 -43 0 -3 -161 -5 -357 -5 l-358
0 95 51 c166 90 274 168 404 291 l81 76 26 -96 c14 -54 37 -128 52 -167z
m1782 38 c118 -59 255 -93 377 -93 l68 0 0 -50 0 -50 -390 0 -390 0 42 68 c22
37 58 104 79 150 l39 83 57 -39 c32 -22 85 -53 118 -69z m1877 -154 l-4 -39
-86 0 -85 0 84 58 c93 65 99 64 91 -19z"/>
<path d="M2522 5312 l3 -226 245 -1 c135 0 252 1 260 3 14 3 16 33 15 225 l0
222 -263 2 -262 2 2 -227z"/>
</g>
</svg>
