<svg width="50" height="50" viewBox="0 0 50 50" fill="none" xmlns="http://www.w3.org/2000/svg">
<path d="M16.7238 40.0353C16.7238 40.2369 16.4919 40.3982 16.1996 40.3982C15.8669 40.4284 15.6351 40.2671 15.6351 40.0353C15.6351 39.8337 15.8669 39.6724 16.1593 39.6724C16.4617 39.6421 16.7238 39.8034 16.7238 40.0353ZM13.5887 39.5817C13.5181 39.7833 13.7198 40.0151 14.0222 40.0756C14.2843 40.1764 14.5867 40.0756 14.6472 39.874C14.7077 39.6724 14.5161 39.4405 14.2137 39.3498C13.9516 39.2792 13.6593 39.38 13.5887 39.5817ZM18.0444 39.4103C17.752 39.4808 17.5504 39.6724 17.5806 39.9042C17.6109 40.1058 17.873 40.2369 18.1754 40.1663C18.4677 40.0958 18.6694 39.9042 18.6391 39.7026C18.6089 39.5111 18.3367 39.38 18.0444 39.4103ZM24.6774 0.78125C10.6956 0.78125 0 11.3962 0 25.378C0 36.5575 7.03629 46.124 17.0867 49.4909C18.377 49.7228 18.8306 48.9264 18.8306 48.2712C18.8306 47.6462 18.8004 44.1986 18.8004 42.0817C18.8004 42.0817 11.744 43.5937 10.2621 39.0776C10.2621 39.0776 9.1129 36.1441 7.45968 35.3881C7.45968 35.3881 5.15121 33.8054 7.62097 33.8357C7.62097 33.8357 10.131 34.0373 11.5121 36.4365C13.7198 40.3276 17.4194 39.2087 18.8609 38.5433C19.0927 36.9304 19.748 35.8115 20.4738 35.1462C14.8387 34.5212 9.15323 33.7046 9.15323 24.0071C9.15323 21.2349 9.91936 19.8437 11.5323 18.0696C11.2702 17.4143 10.4133 14.7127 11.7944 11.2248C13.9012 10.5696 18.75 13.9466 18.75 13.9466C20.7661 13.3821 22.9335 13.0897 25.0806 13.0897C27.2278 13.0897 29.3952 13.3821 31.4113 13.9466C31.4113 13.9466 36.2601 10.5595 38.3669 11.2248C39.748 14.7228 38.8911 17.4143 38.629 18.0696C40.2419 19.8538 41.2298 21.245 41.2298 24.0071C41.2298 33.7349 35.2923 34.5111 29.6573 35.1462C30.5847 35.9425 31.371 37.4546 31.371 39.8236C31.371 43.2208 31.3407 47.4244 31.3407 48.251C31.3407 48.9062 31.8044 49.7026 33.0847 49.4708C43.1653 46.124 50 36.5575 50 25.378C50 11.3962 38.6593 0.78125 24.6774 0.78125ZM9.79839 35.5494C9.66734 35.6502 9.69758 35.8821 9.86895 36.0736C10.0302 36.2349 10.2621 36.3054 10.3931 36.1744C10.5242 36.0736 10.494 35.8417 10.3226 35.6502C10.1613 35.4889 9.92944 35.4183 9.79839 35.5494ZM8.70968 34.7329C8.63911 34.8639 8.73992 35.0252 8.94153 35.126C9.10282 35.2268 9.30444 35.1966 9.375 35.0554C9.44556 34.9244 9.34476 34.7631 9.14314 34.6623C8.94153 34.6018 8.78024 34.6321 8.70968 34.7329ZM11.9758 38.3216C11.8145 38.4526 11.875 38.755 12.1069 38.9466C12.3387 39.1784 12.631 39.2087 12.7621 39.0474C12.8931 38.9163 12.8327 38.6139 12.631 38.4224C12.4093 38.1905 12.1069 38.1603 11.9758 38.3216ZM10.8266 36.8397C10.6653 36.9405 10.6653 37.2026 10.8266 37.4345C10.9879 37.6663 11.2601 37.7671 11.3911 37.6663C11.5524 37.5353 11.5524 37.2732 11.3911 37.0413C11.25 36.8095 10.9879 36.7087 10.8266 36.8397Z" fill="#444444"/>
</svg>
