<svg width="30" height="30" viewBox="0 0 30 30" fill="none" xmlns="http://www.w3.org/2000/svg">
<path d="M10.0343 24.0212C10.0343 24.1421 9.89516 24.2389 9.71976 24.2389C9.52016 24.2571 9.38105 24.1603 9.38105 24.0212C9.38105 23.9002 9.52016 23.8034 9.69556 23.8034C9.87702 23.7853 10.0343 23.8821 10.0343 24.0212ZM8.15323 23.749C8.11089 23.87 8.23185 24.0091 8.41331 24.0454C8.57056 24.1058 8.75202 24.0454 8.78831 23.9244C8.8246 23.8034 8.70968 23.6643 8.52823 23.6099C8.37097 23.5675 8.19556 23.628 8.15323 23.749ZM10.8266 23.6462C10.6512 23.6885 10.5302 23.8034 10.5484 23.9425C10.5665 24.0635 10.7238 24.1421 10.9052 24.0998C11.0806 24.0575 11.2016 23.9425 11.1835 23.8216C11.1653 23.7067 11.002 23.628 10.8266 23.6462ZM14.8065 0.46875C6.41734 0.46875 0 6.8377 0 15.2268C0 21.9345 4.22177 27.6744 10.252 29.6946C11.0262 29.8337 11.2984 29.3558 11.2984 28.9627C11.2984 28.5877 11.2802 26.5192 11.2802 25.249C11.2802 25.249 7.04637 26.1562 6.15726 23.4466C6.15726 23.4466 5.46774 21.6865 4.47581 21.2329C4.47581 21.2329 3.09073 20.2833 4.57258 20.3014C4.57258 20.3014 6.07863 20.4224 6.90726 21.8619C8.23185 24.1966 10.4516 23.5252 11.3165 23.126C11.4556 22.1583 11.8488 21.4869 12.2843 21.0877C8.90323 20.7127 5.49194 20.2228 5.49194 14.4042C5.49194 12.7409 5.95161 11.9062 6.91935 10.8417C6.7621 10.4486 6.24798 8.82762 7.07661 6.73488C8.34073 6.34173 11.25 8.36794 11.25 8.36794C12.4597 8.02923 13.7601 7.85383 15.0484 7.85383C16.3367 7.85383 17.6371 8.02923 18.8468 8.36794C18.8468 8.36794 21.756 6.33569 23.0202 6.73488C23.8488 8.83367 23.3347 10.4486 23.1774 10.8417C24.1452 11.9123 24.7379 12.747 24.7379 14.4042C24.7379 20.2409 21.1754 20.7067 17.7944 21.0877C18.3508 21.5655 18.8226 22.4728 18.8226 23.8942C18.8226 25.9325 18.8044 28.4546 18.8044 28.9506C18.8044 29.3437 19.0827 29.8216 19.8508 29.6825C25.8992 27.6744 30 21.9345 30 15.2268C30 6.8377 23.1956 0.46875 14.8065 0.46875ZM5.87903 21.3296C5.8004 21.3901 5.81855 21.5292 5.92137 21.6442C6.01815 21.7409 6.15726 21.7833 6.23589 21.7046C6.31452 21.6442 6.29637 21.505 6.19355 21.3901C6.09677 21.2933 5.95766 21.251 5.87903 21.3296ZM5.22581 20.8397C5.18347 20.9183 5.24395 21.0151 5.36492 21.0756C5.46169 21.1361 5.58266 21.1179 5.625 21.0333C5.66734 20.9546 5.60685 20.8579 5.48589 20.7974C5.36492 20.7611 5.26815 20.7792 5.22581 20.8397ZM7.18548 22.9929C7.08871 23.0716 7.125 23.253 7.26411 23.3679C7.40323 23.5071 7.57863 23.5252 7.65726 23.4284C7.73589 23.3498 7.6996 23.1683 7.57863 23.0534C7.44556 22.9143 7.26411 22.8962 7.18548 22.9929ZM6.49597 22.1038C6.39919 22.1643 6.39919 22.3216 6.49597 22.4607C6.59274 22.5998 6.75605 22.6603 6.83468 22.5998C6.93145 22.5212 6.93145 22.3639 6.83468 22.2248C6.75 22.0857 6.59274 22.0252 6.49597 22.1038Z" fill="white"/>
</svg>
