<svg width="30" height="30" viewBox="0 0 30 30" fill="none" xmlns="http://www.w3.org/2000/svg">
<path d="M27.8571 0H2.13616C0.957589 0 0 0.970982 0 2.16295V27.8371C0 29.029 0.957589 30 2.13616 30H27.8571C29.0357 30 30 29.029 30 27.8371V2.16295C30 0.970982 29.0357 0 27.8571 0ZM9.06696 25.7143H4.62054V11.3973H9.07366V25.7143H9.06696ZM6.84375 9.44196C5.41741 9.44196 4.26563 8.28348 4.26563 6.86384C4.26563 5.4442 5.41741 4.28571 6.84375 4.28571C8.26339 4.28571 9.42187 5.4442 9.42187 6.86384C9.42187 8.29018 8.27009 9.44196 6.84375 9.44196ZM25.7344 25.7143H21.2879V18.75C21.2879 17.0893 21.2545 14.9531 18.9777 14.9531C16.6607 14.9531 16.3058 16.7612 16.3058 18.6295V25.7143H11.8594V11.3973H16.125V13.3527H16.1853C16.7812 12.2277 18.2344 11.0424 20.3973 11.0424C24.8973 11.0424 25.7344 14.0089 25.7344 17.8661V25.7143Z" fill="#007AB9"/>
<path d="M9.06696 25.7142H4.62054V11.3973H9.07366V25.7142H9.06696ZM6.84375 9.4419C5.41741 9.4419 4.26562 8.28341 4.26562 6.86377C4.26562 5.44413 5.41741 4.28564 6.84375 4.28564C8.26339 4.28564 9.42187 5.44413 9.42187 6.86377C9.42187 8.29011 8.27009 9.4419 6.84375 9.4419ZM25.7344 25.7142H21.2879V18.7499C21.2879 17.0892 21.2545 14.9531 18.9777 14.9531C16.6607 14.9531 16.3058 16.7611 16.3058 18.6294V25.7142H11.8594V11.3973H16.125V13.3526H16.1853C16.7812 12.2276 18.2344 11.0423 20.3973 11.0423C24.8973 11.0423 25.7344 14.0089 25.7344 17.866V25.7142Z" fill="white"/>
</svg>
