<svg width="291" height="157" viewBox="0 0 291 157" fill="none" xmlns="http://www.w3.org/2000/svg">
<path d="M8.8158 72.2372L18.4697 56.4834L0 56L8.8158 72.2372Z" fill="#E1707C"/>
<path d="M104.357 152.944L96.9898 136L86 150.852L104.357 152.944Z" fill="#E1707C"/>
<path d="M236.105 83.5217L230.242 66L218 79.8379L236.105 83.5217Z" fill="#E1707C"/>
<path d="M197.718 17.7156L202.966 0L185 4.31338L197.718 17.7156Z" fill="#E1707C"/>
<path d="M259 156.007L259.419 140L275.427 140.419L275.007 156.427L259 156.007Z" fill="#5C99D1"/>
<path d="M38.3669 125.204L36 109.367L51.837 107L54.2039 122.837L38.3669 125.204Z" fill="#5C99D1"/>
<path d="M125.641 52.7132L118 38.6407L132.072 31L139.713 45.0724L125.641 52.7132Z" fill="#5C99D1"/>
<path d="M160 96.3535L164.548 81L179.901 85.5479L175.354 100.901L160 96.3535Z" fill="#5C99D1"/>
<path d="M115.864 85.3829C120.756 86.8319 123.548 91.9724 122.098 96.8645C120.649 101.756 115.509 104.548 110.617 103.098C105.725 101.649 102.934 96.5089 104.383 91.6169C105.832 86.7248 110.972 83.9338 115.864 85.3829Z" fill="#2AB599"/>
<path d="M195.864 121.383C200.756 122.832 203.548 127.972 202.098 132.864C200.649 137.756 195.509 140.548 190.617 139.098C185.725 137.649 182.934 132.509 184.383 127.617C185.832 122.725 190.972 119.934 195.864 121.383Z" fill="#2AB599"/>
<path d="M283.864 29.3829C288.756 30.8319 291.548 35.9724 290.098 40.8645C288.649 45.7565 283.509 48.5475 278.617 47.0984C273.725 45.6494 270.934 40.5089 272.383 35.6169C273.832 30.7248 278.972 27.9338 283.864 29.3829Z" fill="#2AB599"/>
<path d="M62.8645 6.38285C67.7565 7.83194 70.5475 12.9724 69.0984 17.8645C67.6494 22.7565 62.5089 25.5475 57.6169 24.0984C52.7248 22.6494 49.9338 17.5089 51.3829 12.6169C52.8319 7.72482 57.9724 4.93377 62.8645 6.38285Z" fill="#2AB599"/>
</svg>
