<svg width="312" height="280" viewBox="0 0 312 280" fill="none" xmlns="http://www.w3.org/2000/svg">
<rect x="125.338" y="190.755" width="14.0239" height="14.0239" transform="rotate(-28.5 125.338 190.755)" fill="#6CA4D7"/>
<path d="M230.517 25.9812L237.845 14.0239L249.802 21.3513L242.474 33.3086L230.517 25.9812Z" fill="#6CA4D7"/>
<path d="M193.704 140.514L211.228 140.973L202.864 125.568L193.704 140.514Z" fill="#E47B85"/>
<path d="M31.486 163.36L41.9132 149.268L24.4964 147.284L31.486 163.36Z" fill="#E47B85"/>
<circle cx="109.612" cy="113.995" r="8.76491" transform="rotate(-13.5 109.612 113.995)" fill="#44C2A9"/>
<rect y="75.3434" width="14.0239" height="14.0239" transform="rotate(-38.5 0 75.3434)" fill="#6CA4D7"/>
<path d="M170.015 280L181.63 266.871L164.453 263.376L170.015 280Z" fill="#E47B85"/>
<circle cx="84.1941" cy="228.815" r="8.76491" transform="rotate(-13.5 84.1941 228.815)" fill="#44C2A9"/>
<circle cx="248.098" cy="194.632" r="8.76491" transform="rotate(-13.5 248.098 194.632)" fill="#44C2A9"/>
<path d="M294.539 122.28L311.584 118.187L299.518 105.472L294.539 122.28Z" fill="#E47B85"/>
<rect x="25.4182" y="3.27382" width="14.0239" height="14.0239" transform="rotate(-13.5 25.4182 3.27382)" fill="#6CA4D7"/>
<circle cx="128.895" cy="39.4931" r="8.76491" transform="rotate(-13.5 128.895 39.4931)" fill="#44C2A9"/>
</svg>
