<svg width="293" height="160" viewBox="0 0 293 160" fill="none" xmlns="http://www.w3.org/2000/svg">
<rect x="262" y="157.996" width="13" height="13" transform="rotate(-88.5 262 157.996)" fill="#6CA4D7"/>
<rect x="130.726" y="55.2717" width="13" height="13" transform="rotate(-118.5 130.726 55.2717)" fill="#6CA4D7"/>
<path d="M11.0758 74.5769L18.9133 61.7872L3.91874 61.3948L11.0758 74.5769Z" fill="#E47B85"/>
<path d="M105.894 154.756L99.9126 141L90.9906 153.058L105.894 154.756Z" fill="#E47B85"/>
<circle cx="115.321" cy="99.3213" r="7.5" transform="rotate(-73.5 115.321 99.3213)" fill="#44C2A9"/>
<rect x="39.7737" y="126.642" width="13" height="13" transform="rotate(-98.5 39.7737 126.642)" fill="#6CA4D7"/>
<path d="M236.308 85.2543L231.548 71.0294L221.609 82.2636L236.308 85.2543Z" fill="#E47B85"/>
<circle cx="195.321" cy="132.321" r="7.5" transform="rotate(-73.5 195.321 132.321)" fill="#44C2A9"/>
<circle cx="283.321" cy="42.3213" r="7.5" transform="rotate(-73.5 283.321 42.3213)" fill="#44C2A9"/>
<path d="M199.455 18.0717L203.715 3.68936L189.13 7.19115L199.455 18.0717Z" fill="#E47B85"/>
<rect x="164" y="98.5058" width="13" height="13" transform="rotate(-73.5 164 98.5058)" fill="#6CA4D7"/>
<circle cx="61.3213" cy="14.3213" r="7.5" transform="rotate(-73.5 61.3213 14.3213)" fill="#44C2A9"/>
</svg>
