<svg width="315" height="282" viewBox="0 0 315 282" fill="none" xmlns="http://www.w3.org/2000/svg">
<path d="M192 140.902L211.817 141.421L202.358 124L192 140.902Z" fill="#E1707C"/>
<path d="M30.9045 164.18L42.6964 148.244L23 146L30.9045 164.18Z" fill="#E1707C"/>
<path d="M170.29 281.799L183.426 266.952L164 263L170.29 281.799Z" fill="#E1707C"/>
<path d="M295 122.007L314.276 117.379L300.63 103L295 122.007Z" fill="#E1707C"/>
<path d="M124 188.567L137.937 181L145.505 194.937L131.567 202.505L124 188.567Z" fill="#5C99D1"/>
<path d="M229 27.5223L237.286 14L250.809 22.2865L242.522 35.8088L229 27.5223Z" fill="#5C99D1"/>
<path d="M0 74.8727L12.4117 65L22.2844 77.4117L9.87269 87.2844L0 74.8727Z" fill="#5C99D1"/>
<path d="M25 3.7023L40.4212 0L44.1235 15.4212L28.7023 19.1235L25 3.7023Z" fill="#5C99D1"/>
<path d="M120.553 111.6C121.831 116.923 118.551 122.275 113.228 123.553C107.905 124.831 102.554 121.551 101.276 116.228C99.9982 110.905 103.277 105.554 108.6 104.276C113.923 102.998 119.275 106.277 120.553 111.6Z" fill="#2AB599"/>
<path d="M95.5526 227.6C96.8306 232.923 93.5514 238.275 88.2283 239.553C82.9053 240.831 77.5541 237.551 76.2761 232.228C74.9982 226.905 78.2774 221.554 83.6004 220.276C88.9235 218.998 94.2747 222.277 95.5526 227.6Z" fill="#2AB599"/>
<path d="M258.553 192.6C259.831 197.923 256.551 203.275 251.228 204.553C245.905 205.831 240.554 202.551 239.276 197.228C237.998 191.905 241.277 186.554 246.6 185.276C251.923 183.998 257.275 187.277 258.553 192.6Z" fill="#2AB599"/>
<path d="M140.553 36.6004C141.831 41.9235 138.551 47.2747 133.228 48.5526C127.905 49.8306 122.554 46.5514 121.276 41.2283C119.998 35.9053 123.277 30.5541 128.6 29.2761C133.923 27.9982 139.275 31.2774 140.553 36.6004Z" fill="#2AB599"/>
</svg>
