<svg width="120" height="44" viewBox="0 0 120 44" fill="none" xmlns="http://www.w3.org/2000/svg">
<rect y="27.3333" width="120" height="10" fill="#2AB599"/>
<path fill-rule="evenodd" clip-rule="evenodd" d="M50.1741 22.5062C50.1738 22.4679 50.1735 22.4283 50.1733 22.3875C50.1697 21.7965 50.17 20.9541 50.1851 19.9439C50.2154 17.927 50.305 15.2259 50.5446 12.5147C50.7822 9.82508 51.1744 7.03615 51.8379 4.88498C52.1671 3.81791 52.5951 2.79815 53.1807 2.01599C53.7741 1.2234 54.6738 0.5 55.9086 0.5C57.6661 0.5 58.9416 1.38657 59.7349 2.66111C60.4756 3.85123 60.7964 5.3601 60.9093 6.81127C61.1363 9.72898 60.5688 13.0865 59.8829 15.097C59.1469 17.2545 57.2561 19.6248 55.7187 21.3347C54.9232 22.2195 54.1703 22.9832 53.6165 23.5257C53.4544 23.6845 53.3089 23.8248 53.1839 23.944V26.0955C55.334 25.4074 56.8686 24.6628 58.1499 23.7245C59.7625 22.5437 61.0782 20.981 62.707 18.5765C64.1487 15.6919 65.9365 14.1581 67.9202 13.4261C69.6017 12.8056 71.3256 12.8198 72.6414 12.8307C72.8063 12.832 72.9648 12.8333 73.1159 12.8333H74.6159V22.6132L74.616 22.6142C74.6163 22.6235 74.6172 22.6441 74.6195 22.6743C74.624 22.7354 74.6338 22.8325 74.6545 22.9531C74.6969 23.2012 74.7786 23.5096 74.9264 23.8004C75.071 24.0849 75.265 24.3267 75.53 24.5011C75.7864 24.6697 76.1964 24.8333 76.875 24.8333C77.217 24.8333 77.6839 24.6432 78.2766 24.0022C78.8592 23.3722 79.4022 22.4736 79.8749 21.4853C80.3408 20.5113 80.7033 19.5252 80.9505 18.7751C81.0733 18.4022 81.1661 18.0928 81.2274 17.879C81.2433 17.8237 81.257 17.7749 81.2686 17.7332V15.4297H83.1058C84.1027 14.6685 85.5941 13.9297 87.5874 13.9297H87.672L87.7561 13.9392C89.5421 14.1414 90.7054 14.9916 91.4074 15.8383C91.7484 16.2497 91.972 16.6484 92.1129 16.9513C92.1837 17.1036 92.235 17.2346 92.2707 17.335C92.2885 17.3853 92.3026 17.4282 92.3133 17.4627C92.3186 17.4799 92.3231 17.4951 92.3269 17.508L92.3319 17.5257L92.3341 17.5333L92.335 17.5368L92.3355 17.5385C92.3355 17.5385 92.3359 17.5401 90.888 17.9318L92.3359 17.5401L92.388 17.7325V24.8566L92.3872 24.8727C92.3872 24.8705 92.3872 24.8711 92.3872 24.8742L92.3872 24.8752C92.3871 24.8822 92.3872 24.898 92.3879 24.9215C92.3895 24.9714 92.3941 25.0526 92.407 25.1537C92.4339 25.3638 92.4912 25.6173 92.6 25.8504C92.7054 26.0761 92.845 26.2549 93.0337 26.3821C93.2149 26.5042 93.5378 26.6445 94.125 26.6445C95.1649 26.6445 95.6815 26.1542 96.0093 25.6094C96.187 25.3142 96.3006 25.0059 96.369 24.7639C96.401 24.6507 96.4212 24.5587 96.4329 24.4986V19.3105H99.4329V24.4888C99.6733 25.6419 100.976 26.6445 102.29 26.6445C102.955 26.6445 103.733 26.3988 104.299 25.9803C104.758 25.6403 104.971 25.2799 105.012 24.9273C105.013 24.9108 105.013 24.8949 105.013 24.8796C105.014 24.7945 105.014 24.7289 105.014 24.6851L105.014 24.636L105.014 24.6242V19.3107L108.014 19.3106V24.5765C108.024 24.7515 108.022 24.9223 108.011 25.0888C108.009 25.246 108.007 25.4391 108.003 25.6623C107.991 26.3032 107.968 27.195 107.922 28.1997C107.851 29.7381 107.724 31.5975 107.489 33.2344C107.646 33.301 107.787 33.3665 107.914 33.4259C107.991 33.4617 108.063 33.4953 108.131 33.5255C108.548 33.7114 109.056 33.9072 110.103 34.0167C110.978 34.1081 111.593 33.89 111.978 33.6776C112.177 33.5684 112.32 33.4571 112.406 33.3818C112.448 33.3445 112.476 33.3171 112.487 33.305C112.493 33.299 112.495 33.2969 112.493 33.2994L112.486 33.3069L112.48 33.3134L112.477 33.3174L112.475 33.3196L112.474 33.3208C112.474 33.3208 112.473 33.3219 113.625 34.283C114.777 35.2441 114.776 35.2453 114.776 35.2453L114.775 35.2466L114.772 35.2491L114.768 35.2547L114.757 35.2676C114.751 35.2737 114.746 35.2804 114.739 35.2877C114.736 35.2915 114.732 35.2955 114.728 35.2997C114.717 35.3124 114.704 35.3265 114.69 35.342C114.677 35.356 114.663 35.3712 114.647 35.3873C114.581 35.4552 114.493 35.5415 114.382 35.639C114.16 35.8334 113.841 36.0764 113.425 36.3054C112.582 36.7697 111.358 37.1643 109.791 37.0004C108.396 36.8546 107.583 36.5653 106.911 36.266C106.874 36.2495 106.838 36.2336 106.804 36.2181C106.247 37.8088 105.386 39.2927 104.347 40.4954C102.984 42.0742 101.149 43.3499 99.1102 43.4901C97.9184 43.572 96.863 43.1343 96.23 42.1694C95.6734 41.3211 95.6011 40.298 95.6913 39.4533C95.8694 37.7873 96.7978 35.7977 98.2417 34.7529C99.11 34.1245 101.549 32.6037 104.542 32.6479C104.695 31.5372 104.8 30.284 104.871 29.0893C104.043 29.4517 103.143 29.6445 102.29 29.6445C100.79 29.6445 99.2054 28.9991 98.0564 27.8859C97.2514 28.8329 95.9907 29.6445 94.125 29.6445C93.0247 29.6445 92.0992 29.37 91.357 28.8698C90.6224 28.3746 90.1637 27.7236 89.8817 27.1195C89.6031 26.5229 89.484 25.9466 89.4313 25.5343C89.4044 25.3243 89.3934 25.1461 89.3893 25.0146C89.3873 24.9486 89.3869 24.8935 89.3873 24.8512C89.3874 24.8335 89.3877 24.8181 89.388 24.8049V18.2063C89.3323 18.0885 89.2395 17.9238 89.0978 17.753C88.8343 17.4352 88.3684 17.0486 87.5011 16.9305C86.3034 16.9513 85.4444 17.4043 84.8699 17.858C84.6085 18.0644 84.4082 18.27 84.2686 18.4314V27.3333H81.2686V25.0576C81.0237 25.4036 80.7607 25.7346 80.4792 26.039C79.6153 26.9733 78.408 27.8333 76.875 27.8333C75.6785 27.8333 74.6812 27.5336 73.8812 27.0073C73.0898 26.4867 72.5784 25.8018 72.252 25.1598C72.2316 25.1196 72.2118 25.0794 72.1927 25.0394C71.9908 25.1566 71.7768 25.2755 71.5532 25.3925C70.8469 25.7621 70.0086 26.1321 69.1313 26.3616C68.2657 26.5881 67.255 26.7061 66.2617 26.4538C64.7263 26.0639 63.2658 25.2395 62.4753 23.8154C61.6849 24.6923 60.8544 25.4625 59.9224 26.145C58.721 27.0247 57.3873 27.7325 55.8128 28.3477C56.115 28.5537 56.409 28.7835 56.6732 29.0379C57.2405 29.5841 57.8666 30.438 57.8303 31.5632C57.7964 32.6114 57.2068 33.4544 56.6778 34.0258C56.1211 34.6271 55.4289 35.1448 54.8028 35.5537C54.1666 35.9691 53.5413 36.3088 53.0799 36.5431C52.8477 36.6611 52.6531 36.7542 52.5146 36.8188C52.4452 36.8511 52.3897 36.8764 52.3502 36.8941L52.3033 36.915L52.2893 36.9212L52.2848 36.9232L52.2832 36.9239C52.2832 36.9239 52.282 36.9244 51.6839 35.5488L52.282 36.9244L50.1839 37.8364V26.0183C48.418 27.0211 46.6685 27.754 44.6924 28.4099C44.9629 28.5996 45.225 28.8088 45.4629 29.0379C46.0302 29.5841 46.6563 30.438 46.62 31.5632C46.5861 32.6114 45.9965 33.4544 45.4675 34.0258C44.9108 34.6271 44.2187 35.1448 43.5925 35.5537C42.9563 35.9691 42.331 36.3088 41.8696 36.5431C41.6374 36.6611 41.4428 36.7542 41.3043 36.8188C41.235 36.8511 41.1794 36.8764 41.1399 36.8941L41.093 36.915L41.079 36.9212L41.0729 36.9239C41.0729 36.9239 41.0717 36.9244 40.4737 35.5488L41.0717 36.9244L38.9737 37.8364V26.1559C37.9505 26.569 36.6469 26.8047 35.115 26.5018C33.7193 26.2259 32.6762 25.6832 31.911 25.074C31.7592 25.3537 31.5882 25.6427 31.3965 25.9329C30.2715 27.6362 28.2752 29.5935 25.125 29.5935C23.4366 29.5935 22.1384 28.8807 21.2101 27.8558C20.3216 26.8749 19.7936 25.6393 19.4687 24.5334C19.4365 24.4239 19.4061 24.3146 19.3772 24.2058C16.9529 26.5465 13.6634 27.3976 11.0077 28.0847C10.9636 28.0961 10.9197 28.1075 10.876 28.1188L10.124 25.2145C13.9691 24.219 17.3022 23.2509 18.847 19.8197V11.2497L11.7593 13.6825L10.7853 10.845L18.847 8.07786V2.39147H21.847V7.11459L28.815 4.9585L29.7018 7.82443L21.847 10.2549V20.1367L21.8469 20.1437L21.8469 20.145L21.8469 20.1539C21.8468 20.1639 21.8469 20.181 21.847 20.2047C21.8474 20.2522 21.8486 20.3261 21.8516 20.4226C21.8577 20.6159 21.8714 20.8977 21.902 21.238C21.9638 21.9262 22.0914 22.8175 22.347 23.6877C22.6072 24.5732 22.9691 25.3291 23.4335 25.8418C23.8581 26.3105 24.3759 26.5935 25.125 26.5935C26.8498 26.5935 28.0452 25.5636 28.8932 24.2796C29.3116 23.6461 29.6072 23.0015 29.7984 22.5094C29.8931 22.2656 29.9598 22.0653 30.0017 21.9306C30.004 21.9231 30.0063 21.9158 30.0084 21.9087V12.2638H33.0084V21.8174C33.0754 21.9459 33.1911 22.1354 33.3748 22.3436C33.7415 22.7592 34.4285 23.308 35.6968 23.5588C36.8661 23.7899 37.7589 23.4805 38.3807 23.111C38.6183 22.9698 38.8145 22.8202 38.9653 22.6901C38.9644 22.5982 38.9636 22.4972 38.963 22.3875C38.9594 21.7965 38.9597 20.9541 38.9749 19.9439C39.0051 17.927 39.0948 15.2259 39.3343 12.5147C39.5719 9.82508 39.9641 7.03615 40.6276 4.88498C40.9568 3.81791 41.3849 2.79815 41.9704 2.01599C42.5638 1.2234 43.4635 0.5 44.6983 0.5C46.4558 0.5 47.7313 1.38657 48.5246 2.66111C49.2653 3.85123 49.5861 5.3601 49.699 6.81127C49.926 9.72897 49.3585 13.0865 48.6726 15.097C47.9366 17.2545 46.0459 19.6248 44.5084 21.3347C43.7129 22.2195 42.96 22.9832 42.4062 23.5257C42.2441 23.6845 42.0986 23.8248 41.9737 23.944V26.114C45.2476 25.1533 47.6078 24.2001 50.1741 22.5062ZM41.9737 30.2907V33.0278C42.4923 32.6876 42.9496 32.3296 43.2661 31.9877C43.5256 31.7074 43.5962 31.5405 43.615 31.4847C43.5951 31.4432 43.5376 31.3487 43.3821 31.199C43.1009 30.9283 42.6643 30.643 42.1375 30.3729C42.083 30.3449 42.0283 30.3175 41.9737 30.2907ZM43.6247 31.509L43.6241 31.5068L43.6247 31.509ZM41.98 19.6563C42.0783 19.5493 42.1776 19.4401 42.2775 19.3289C43.8162 17.6176 45.3151 15.6475 45.8333 14.1284C46.4017 12.4623 46.9002 9.5135 46.708 7.04399C46.6114 5.80157 46.3512 4.84662 45.9776 4.24633C45.6565 3.73044 45.2843 3.5 44.6983 3.5C44.6956 3.50092 44.6836 3.50502 44.6633 3.5175C44.6118 3.54911 44.5095 3.6302 44.372 3.81393C44.0857 4.19625 43.781 4.84005 43.4944 5.76924C42.9264 7.6106 42.5553 10.145 42.3226 12.7788C42.1046 15.247 42.0142 17.7241 41.98 19.6563ZM53.1839 33.0278C53.7026 32.6876 54.1599 32.3296 54.4764 31.9877C54.7359 31.7074 54.8065 31.5405 54.8253 31.4847C54.8053 31.4432 54.7479 31.3487 54.5924 31.199C54.3112 30.9283 53.8746 30.643 53.3478 30.3729C53.2933 30.3449 53.2386 30.3175 53.1839 30.2907V33.0278ZM54.835 31.509L54.8344 31.5068L54.835 31.509ZM71.6159 21.8594V15.8348C70.6651 15.8513 69.8058 15.928 68.9588 16.2406C67.8024 16.6673 66.5269 17.6081 65.3518 19.9957C64.7461 21.2263 64.8731 21.9435 65.0906 22.3454C65.337 22.8004 65.9255 23.2732 67.0002 23.5462C67.3194 23.6272 67.7756 23.6153 68.372 23.4593C68.9567 23.3063 69.5756 23.0414 70.1624 22.7344C70.7379 22.4332 71.247 22.1104 71.6159 21.8594ZM103.801 35.6805C102.092 35.8579 100.641 36.7199 100 37.1833C99.3979 37.6193 98.7842 38.7446 98.6744 39.7722C98.6294 40.1923 98.6902 40.4138 98.7231 40.4931C98.7563 40.4984 98.8143 40.5033 98.9044 40.4971C99.8359 40.4331 100.992 39.7913 102.077 38.5348C102.774 37.7271 103.374 36.7398 103.801 35.6805ZM96.4448 24.4313C96.4452 24.4291 96.4455 24.4265 96.4455 24.4265L96.4451 24.4297L96.4448 24.4313ZM53.1902 19.6563C53.2885 19.5493 53.3879 19.4401 53.4878 19.3289C55.0265 17.6176 56.5254 15.6475 57.0436 14.1284C57.6119 12.4623 58.1105 9.51349 57.9183 7.04399C57.8217 5.80157 57.5615 4.84661 57.1879 4.24633C56.8668 3.73044 56.4945 3.5 55.9086 3.5C55.9058 3.50092 55.8939 3.50502 55.8736 3.5175C55.8221 3.54911 55.7198 3.6302 55.5823 3.81393C55.296 4.19625 54.9913 4.84005 54.7047 5.76924C54.1367 7.6106 53.7656 10.145 53.5329 12.7788C53.3149 15.247 53.2245 17.7241 53.1902 19.6563ZM33.0084 8.48223V10.8912H30.0084V8.48223H33.0084Z" fill="white"/>
</svg>
